# xmcd
#
# Track frame offsets: 
#        150
#        17909
#        34456
#        52474
#        66989
#        80367
#        98614
#        110459
#        130674
#        148132
#        162884
#        183765
#        201609
#
# Disc length: 2909 seconds
#
# Revision: 11
# Processed by: cddbd v1.5.2PL0 Copyright (c) Steve Scherf et al.
# Submitted via: ExactAudioCopyFreeDBPlugin 1.0
#
DISCID=bf0b5b0d
DTITLE=Carrie Underwood - Play On
DYEAR=2009
DGENRE=Americana
TTITLE0=Cowboy Casanova
TTITLE1=Quitter
TTITLE2=Mama's Song
TTITLE3=Change
TTITLE4=Undo It
TTITLE5=Someday When I Stop Loving You
TTITLE6=Songs Like This
TTITLE7=Temporary Home
TTITLE8=This Time
TTITLE9=Look at Me
TTITLE10=Unapologize
TTITLE11=Carrie Underwood, Sons of Sylvia - What Can I Say
TTITLE12=Play On
EXTD=
EXTT0=
EXTT1=
EXTT2=
EXTT3=
EXTT4=
EXTT5=
EXTT6=
EXTT7=
EXTT8=
EXTT9=
EXTT10=
EXTT11=
EXTT12=
PLAYORDER=
